<svg xmlns="http://www.w3.org/2000/svg" viewBox="0 0 815.56 142.89"><defs><style>.cls-1{fill:#ec0000;}</style></defs><title>Santander</title><g id="Layer_2" data-name="Layer 2"><g id="Logo"><path class="cls-1" d="M107.64,65.45a32.6,32.6,0,0,0-4.33-14.88L79.8,9.85A32.24,32.24,0,0,1,76.08,0l-1,1.7a32.58,32.58,0,0,0,0,32.58L93.9,66.86a32.6,32.6,0,0,1,0,32.59l-1,1.7A32.67,32.67,0,0,0,89.2,91.3L72,61.47l-11-19a32.77,32.77,0,0,1-3.72-9.85l-1,1.7a32.59,32.59,0,0,0-.06,32.48h0L75.09,99.45a32.58,32.58,0,0,1,0,32.58l-1,1.7a32.77,32.77,0,0,0-3.72-9.85L46.88,83.16a32.5,32.5,0,0,1-4.33-17.71C17.37,72,0,86,0,102.16c0,22.49,33.62,40.73,75.09,40.73s75.1-18.24,75.1-40.73C150.19,86,132.81,72,107.64,65.45ZM178.54,135a47.41,47.41,0,0,1,2.68-14.25,65.83,65.83,0,0,0,25.81,5.5c13.12,0,20.45-4.23,20.45-12.55s-5.36-12-18.62-17.77l-7.19-3.11C188.41,87,179.38,79.55,179.38,64.6c0-16.08,11.15-26.37,34-26.37a77.41,77.41,0,0,1,25.81,4.09,54,54,0,0,1-2.82,14.1,71.62,71.62,0,0,0-23.13-4.09c-12.28,0-17.92,4.8-17.92,12.27s5.5,11.57,15.38,15.8l7.61,3.24C236.23,91.26,243.7,99.3,243.7,113c0,16.22-12.27,27.37-36.25,27.37C195.89,140.35,186.44,138.66,178.54,135ZM319.45,67.56v70.53H305.2l-.84-8.46c-3.95,6.2-10,10.15-19.89,10.15-18.62,0-31-13.54-31-37.23,0-24.83,13.26-38.93,39.35-38.93C303,63.62,311.27,64.74,319.45,67.56ZM303.94,122V77.72a64.56,64.56,0,0,0-11.15-.85c-16.08,0-23.55,9.88-23.55,25.68,0,14.38,5.78,24.54,19.6,24.54A24.33,24.33,0,0,0,303.94,122ZM398.87,90.7v47.39H383.35V93.38c0-11.14-3.67-16.51-19.18-16.51A78.39,78.39,0,0,0,351.9,78v60.09H336.38V67.56c9.87-2.39,20.74-3.94,28.21-3.94C390.54,63.62,398.87,73.63,398.87,90.7Zm43,35.82A35.14,35.14,0,0,0,454,124.41c-.42,4.23-1,9-1.83,13.12a35.28,35.28,0,0,1-13.12,2.25c-15.09,0-24.68-6.91-24.68-24.12v-74a53.67,53.67,0,0,1,15.51-2.26V66h24.54A117.85,117.85,0,0,1,453,79.27H429.9v34.56C429.9,123,434.42,126.52,441.89,126.52Zm83.23-59v70.53H510.87l-.85-8.46c-3.95,6.2-10,10.15-19.89,10.15-18.61,0-31-13.54-31-37.23,0-24.83,13.26-38.93,39.36-38.93C508.61,63.62,516.93,64.74,525.12,67.56ZM509.6,122V77.72a64.35,64.35,0,0,0-11.14-.85c-16.08,0-23.56,9.88-23.56,25.68,0,14.38,5.78,24.54,19.61,24.54A24.32,24.32,0,0,0,509.6,122ZM604.53,90.7v47.39H589V93.38c0-11.14-3.67-16.51-19.19-16.51A78.39,78.39,0,0,0,557.56,78v60.09H542.05V67.56c9.87-2.39,20.73-3.94,28.21-3.94C596.21,63.62,604.53,73.63,604.53,90.7Zm78.71-51.35v98.74H669l-.85-9c-3.95,6.63-10,10.72-20.17,10.72-18.62,0-31-13.54-31-37.23,0-24.83,13.26-38.93,39.35-38.93a61.2,61.2,0,0,1,11.57,1.12V41.47C672.66,39.78,678.16,39.35,683.24,39.35Zm-15.37,82.38V78.29a61.76,61.76,0,0,0-12.42-1.42c-15.37,0-22.7,9.6-22.7,25.68,0,14.38,5.78,24.54,19.6,24.54A24.89,24.89,0,0,0,667.87,121.73Zm93.38-13.82H711.74c2,12.55,9.31,18.61,23.13,18.61a60.37,60.37,0,0,0,24.82-5.36c-.56,4.1-1.4,9.46-2.39,14.11-7.06,3.24-14.53,4.51-22.85,4.51-26,0-38.51-14.38-38.51-38.5,0-21,9.73-37.66,34.42-37.66,22.14,0,31.73,14.52,31.73,32.3A83.37,83.37,0,0,1,761.25,107.91Zm-49.79-13h35c0-11.57-6.21-18.34-16.93-18.34C718.51,76.59,712.72,82.94,711.46,94.93Zm104.1-30.75a57.56,57.56,0,0,1-1.42,13.26,100.62,100.62,0,0,0-11.7-.57,78.51,78.51,0,0,0-11.43.85v60.37H775.5V67.56c6.63-2.25,17.77-3.94,26.51-3.94A127.62,127.62,0,0,1,815.56,64.18Z"/></g></g></svg>